# xmcd
#
# Track frame offsets:
#	150
#	36420
#	58880
#	86982
#	116990
#	138320
#	158597
#	188077
#
# Disc length: 2943 seconds
#
# Revision: 1
# Processed by: cddbd v1.5.2PL0 Copyright (c) Steve Scherf et al.
# Submitted via: audiograbber 1.83.01
#
DISCID=720b7d08
DTITLE=Punch and Judy - Shadowdancer
DYEAR=1992
DGENRE=Pop
TTITLE0=Punch and Judy - Shadowdancer
TTITLE1=Punch and Judy - Freedom fighter
TTITLE2=Punch and Judy - I believe in you
TTITLE3=Punch and Judy - The sinner
TTITLE4=Punch and Judy - Let it go
TTITLE5=Punch and Judy - Gimme some time
TTITLE6=Punch and Judy - Sweetest little thing
TTITLE7=Punch and Judy - Burning house
EXTD=
EXTT0=
EXTT1=
EXTT2=
EXTT3=
EXTT4=
EXTT5=
EXTT6=
EXTT7=
PLAYORDER=
